<?xml version="1.0" encoding="UTF-8" standalone="no"?>
<!-- Created with Inkscape (http://www.inkscape.org/) -->

<svg
   width="117.99067mm"
   height="122.51849mm"
   viewBox="0 0 117.99067 122.51849"
   version="1.1"
   id="svg5"
   inkscape:version="1.2.2 (b0a8486541, 2022-12-01)"
   sodipodi:docname="logo.svg"
   xmlns:inkscape="http://www.inkscape.org/namespaces/inkscape"
   xmlns:sodipodi="http://sodipodi.sourceforge.net/DTD/sodipodi-0.dtd"
   xmlns="http://www.w3.org/2000/svg"
   xmlns:svg="http://www.w3.org/2000/svg">
  <sodipodi:namedview
     id="namedview7"
     pagecolor="#ffffff"
     bordercolor="#000000"
     borderopacity="0.25"
     inkscape:showpageshadow="2"
     inkscape:pageopacity="0.0"
     inkscape:pagecheckerboard="0"
     inkscape:deskcolor="#d1d1d1"
     inkscape:document-units="mm"
     showgrid="false"
     inkscape:zoom="0.59213249"
     inkscape:cx="147.77098"
     inkscape:cy="141.86014"
     inkscape:window-width="1366"
     inkscape:window-height="731"
     inkscape:window-x="0"
     inkscape:window-y="0"
     inkscape:window-maximized="1"
     inkscape:current-layer="layer1" />
  <defs
     id="defs2" />
  <g
     inkscape:label="Layer 1"
     inkscape:groupmode="layer"
     id="layer1"
     transform="translate(-71.726288,-168.02721)">
    <path
       sodipodi:type="star"
       style="fill:#ef7b42;fill-opacity:1;stroke:none;stroke-width:3.61799;stroke-linecap:round"
       id="path356"
       inkscape:flatsided="false"
       sodipodi:sides="18"
       sodipodi:cx="121.89046"
       sodipodi:cy="240.78671"
       sodipodi:r1="50.199654"
       sodipodi:r2="45.179688"
       sodipodi:arg1="1.0857504"
       sodipodi:arg2="1.2602834"
       inkscape:rounded="0.3"
       inkscape:randomized="0"
       d="m 145.29599,285.19601 c -2.57464,1.35695 -6.82985,-2.27949 -9.60101,-1.39024 -2.77116,0.88925 -4.11591,6.32267 -6.99939,6.7172 -2.88348,0.39453 -5.63833,-4.47797 -8.54651,-4.59014 -2.90818,-0.11218 -6.03017,4.53364 -8.87469,3.91817 -2.84452,-0.61547 -3.76674,-6.13634 -6.46117,-7.2364 -2.69443,-1.10007 -7.217106,2.19779 -9.679577,0.64655 -2.462472,-1.55123 -1.44083,-7.05457 -3.596522,-9.00984 -2.155691,-1.95527 -7.533547,-0.40315 -9.316959,-2.70305 -1.783413,-2.2999 1.058869,-7.12192 -0.298077,-9.69657 -1.356944,-2.57464 -6.941334,-2.95546 -7.830581,-5.72662 -0.889247,-2.77116 3.430852,-6.33026 3.036321,-9.21374 -0.39453,-2.88348 -5.511894,-5.1513 -5.39972,-8.05948 0.112175,-2.90818 5.389024,-4.77508 6.004494,-7.6196 0.615471,-2.84452 -3.417638,-6.72582 -2.317573,-9.42025 1.100067,-2.69443 6.6972,-2.64395 8.248437,-5.10642 1.551236,-2.46247 -0.911165,-7.4891 1.044107,-9.64479 1.955275,-2.1557 7.197595,-0.19393 9.497496,-1.97734 2.2999,-1.78342 1.705208,-7.34909 4.279853,-8.70604 2.574651,-1.35694 6.829851,2.27949 9.601021,1.39024 2.77116,-0.88924 4.1159,-6.32267 6.99938,-6.7172 2.88348,-0.39453 5.63833,4.47797 8.54651,4.59015 2.90819,0.11217 6.03017,-4.53365 8.87469,-3.91818 2.84452,0.61548 3.76675,6.13634 6.46118,7.23641 2.69443,1.10006 7.2171,-2.19779 9.67957,-0.64656 2.46247,1.55124 1.44083,7.05457 3.59652,9.00985 2.15569,1.95527 7.53355,0.40314 9.31696,2.70304 1.78342,2.2999 -1.05887,7.12193 0.29808,9.69657 1.35694,2.57465 6.94133,2.95546 7.83058,5.72662 0.88925,2.77117 -3.43085,6.33026 -3.03632,9.21374 0.39453,2.88348 5.51189,5.1513 5.39972,8.05948 -0.11218,2.90819 -5.38902,4.77508 -6.0045,7.61961 -0.61547,2.84452 3.41764,6.72581 2.31758,9.42024 -1.10007,2.69443 -6.6972,2.64396 -8.24844,5.10643 -1.55123,2.46247 0.91117,7.4891 -1.04411,9.64479 -1.95527,2.15569 -7.19759,0.19393 -9.49749,1.97734 -2.2999,1.78341 -1.70521,7.34909 -4.27986,8.70603 z"
       inkscape:transform-center-x="1.5356278e-06"
       inkscape:transform-center-y="-3.0335335e-06" />
    <circle
       style="fill:#faf496;fill-opacity:1;stroke:none;stroke-width:3.60798;stroke-linecap:round;stroke-opacity:0"
       id="path412"
       cx="121.76329"
       cy="241.08824"
       r="39.781723" />
    <g
       aria-label="L"
       id="text2476"
       style="font-size:50.8px;-inkscape-font-specification:sans-serif;fill:#ef7b42;stroke:#ffffff;stroke-width:0.439035;stroke-linecap:round;stroke-dasharray:none;stroke-opacity:1"
       transform="matrix(2.5360253,-0.71653978,0.58121254,1.7790715,-84.390322,30.608891)">
      <path
         d="m 43.587444,149.30447 -0.100142,-48.05209 12.446809,-1.04504 -0.548495,33.87337 19.678042,0.0715 -1.552018,15.26096 z"
         style="font-weight:bold;-inkscape-font-specification:'sans-serif Bold';stroke:#ffffff;stroke-width:0.584027;stroke-dasharray:none;stroke-opacity:1"
         id="path3930"
         sodipodi:nodetypes="ccccccc" />
    </g>
    <path
       style="fill:none;fill-opacity:1;stroke:#ffffff;stroke-width:0.799999;stroke-linecap:round;stroke-dasharray:none;stroke-opacity:1"
       d="m 90.755625,179.50226 25.378625,77.23898 67.69319,-17.93435"
       id="path9891" />
  </g>
</svg>
